<svg id="Layer_1" data-name="Layer 1" xmlns="http://www.w3.org/2000/svg" viewBox="0 0 162 162"><defs><style>.cls-1{fill:#17e67e;}.cls-1,.cls-2{opacity:0.3;}.cls-2{fill:#17b9e6;}</style></defs><title>enterprise-image-top1</title><path id="Shape" class="cls-1" d="M161.5846,23.67841l-8.25866,27.01284a1.74006,1.74006,0,0,1-1.28662,1.19415L124.25846,58.164a1.83484,1.83484,0,0,1-.9164-.0379,1.812,1.812,0,0,1-.775-.47922l-19.5204-20.74006a1.74579,1.74579,0,0,1-.40481-1.71127l8.25866-27.01284A1.76376,1.76376,0,0,1,112.193,6.99038L139.97384.71176a1.74764,1.74764,0,0,1,.91052.0361,1.77,1.77,0,0,1,.78092.481L161.18569,21.969A1.75536,1.75536,0,0,1,161.5846,23.67841Z"/><path id="Shape-2" data-name="Shape" class="cls-2" d="M124.72427,39.39049l19.0756,66.52453a4.2682,4.2682,0,0,1-1.0367,4.16659L94.43991,159.943a4.44365,4.44365,0,0,1-1.91986,1.141,4.3875,4.3875,0,0,1-2.21837.04561l-67.403-16.67746a4.28194,4.28194,0,0,1-3.10153-2.98L.72155,74.9477A4.32626,4.32626,0,0,1,1.77266,70.777L50.09593,20.91555a4.232,4.232,0,0,1,1.90545-1.13688,4.2862,4.2862,0,0,1,2.23278-.04974l67.403,16.67746A4.30581,4.30581,0,0,1,124.72427,39.39049Z"/></svg>