<svg id="Layer_1" data-name="Layer 1" xmlns="http://www.w3.org/2000/svg" viewBox="0 0 300 416.00003"><defs><style>.cls-1{fill:silver;opacity:0.1986;isolation:isolate;}.cls-2{opacity:0.29593;}.cls-3{fill:#17b9e6;}.cls-4{fill:#17e67e;}</style></defs><title>innovation</title><circle id="Oval" class="cls-1" cx="150" cy="150" r="150"/><g id="Mobile-Graphics" class="cls-2"><g id="cube-01"><path id="Shape" class="cls-3" d="M276.21526,259.64437l8.04512,45.62614a2.85958,2.85958,0,0,1-.97589,2.70049l-35.49691,29.78649a2.95293,2.95293,0,0,1-1.35213.62429,2.91546,2.91546,0,0,1-1.47426-.12592l-43.54376-15.84949a2.86873,2.86873,0,0,1-1.85051-2.20212l-8.04512-45.62614a2.89844,2.89844,0,0,1,.98574-2.70223l35.4969-29.78649a2.81234,2.81234,0,0,1,1.34229-.62255,2.84824,2.84824,0,0,1,1.48411.12418l43.54376,15.84949A2.88477,2.88477,0,0,1,276.21526,259.64437Z"/></g><g id="cube-01-2" data-name="cube-01"><path id="Shape-2" data-name="Shape" class="cls-4" d="M213.87415,374.07432,208.592,404.03088a1.87748,1.87748,0,0,1-1.20851,1.447l-28.58934,10.40624a1.93874,1.93874,0,0,1-.97442.08152,1.91421,1.91421,0,0,1-.8813-.40873l-23.306-19.5568a1.88353,1.88353,0,0,1-.6472-1.77418l5.28215-29.95656a1.903,1.903,0,0,1,1.215-1.44584l28.58934-10.40623a1.84654,1.84654,0,0,1,.968-.08267,1.87015,1.87015,0,0,1,.88777.40988l23.306,19.55679A1.89407,1.89407,0,0,1,213.87415,374.07432Z"/></g></g></svg>