<svg id="Layer_1" data-name="Layer 1" xmlns="http://www.w3.org/2000/svg" viewBox="0 0 221 243.01194"><defs><style>.cls-1{fill:silver;opacity:0.2;isolation:isolate;}.cls-2{opacity:0.29593;}.cls-3{fill:#f2bb30;}</style></defs><title>innovation</title><circle id="Oval" class="cls-1" cx="121" cy="142.99997" r="100"/><g id="cube-01" class="cls-2"><path id="Shape" class="cls-3" d="M88.18983,12.80062l15.329,47.178a3.06179,3.06179,0,0,1-.63232,3.00871L69.68824,99.85906a3.16151,3.16151,0,0,1-1.34062.86341,3.12167,3.12167,0,0,1-1.58191.08618L18.235,90.49225a3.07157,3.07157,0,0,1-2.29022-2.05913l-15.329-47.178a3.10333,3.10333,0,0,1,.6425-3.012L34.45658,1.37137A3.01115,3.01115,0,0,1,35.787.51127,3.04963,3.04963,0,0,1,37.37911.42178l48.53068,10.3164A3.08877,3.08877,0,0,1,88.18983,12.80062Z"/></g></svg>