<svg id="Layer_1" data-name="Layer 1" xmlns="http://www.w3.org/2000/svg" xmlns:xlink="http://www.w3.org/1999/xlink" viewBox="0 0 404 555"><defs><style>.cls-1,.cls-2,.cls-3,.cls-5{opacity:0.3;}.cls-1,.cls-2,.cls-3,.cls-4,.cls-5{isolation:isolate;}.cls-1{fill:url(#linear-gradient);}.cls-2{fill:#a117e6;}.cls-3{fill:#f2bb30;}.cls-4{fill:#17e67e;opacity:0.29224;}.cls-5{fill:#17b9e6;}</style><linearGradient id="linear-gradient" x1="-215.91947" y1="574.27106" x2="-216.79212" y2="574.83723" gradientTransform="matrix(240, 0, 0, -274.64917, 52222, 158015.17444)" gradientUnits="userSpaceOnUse"><stop offset="0" stop-color="#fff" stop-opacity="0.2"/><stop offset="1" stop-color="#fff"/></linearGradient></defs><title>empowering-devs</title><path id="Fill-1-Copy" class="cls-1" d="M360,107.66663a8.011,8.011,0,0,0-4.00208-6.93623L244.00208,36.071a8.01305,8.01305,0,0,0-8.00416,0L124.00208,100.7304A8.01421,8.01421,0,0,0,120,107.66663V236.98552a8.00742,8.00742,0,0,0,4.00208,6.93318l111.99584,64.65946a8.01305,8.01305,0,0,0,8.00416,0L355.99792,243.9187A8.0042,8.0042,0,0,0,360,236.98552Z"/><circle id="Oval" class="cls-2" cx="45" cy="248.99997" r="45"/><path id="Shape" class="cls-3" d="M403.61386,500.10562v34.6305a2.13745,2.13745,0,0,1-1.06891,1.8612l-29.99615,17.319a2.20742,2.20742,0,0,1-1.07636.284,2.17909,2.17909,0,0,1-1.06888-.284l-29.99618-17.319a2.1443,2.1443,0,0,1-1.07636-1.8612v-34.6305a2.16646,2.16646,0,0,1,1.07636-1.8612l29.99618-17.319a2.102,2.102,0,0,1,1.06888-.284,2.12869,2.12869,0,0,1,1.07636.284l29.99615,17.319A2.15631,2.15631,0,0,1,403.61386,500.10562Z"/><path id="Shape-2" data-name="Shape" class="cls-4" d="M159.945,14.82027V40.14015a1.5628,1.5628,0,0,1-.78151,1.36081L137.23193,54.16363a1.61364,1.61364,0,0,1-.787.20767,1.59323,1.59323,0,0,1-.78152-.20767L113.73194,41.501a1.5678,1.5678,0,0,1-.787-1.36081V14.82027a1.584,1.584,0,0,1,.787-1.36081L135.66344.79679A1.53692,1.53692,0,0,1,136.445.58912a1.55654,1.55654,0,0,1,.787.20767l21.93151,12.66267A1.57659,1.57659,0,0,1,159.945,14.82027Z"/><path id="Shape-3" data-name="Shape" class="cls-5" d="M306.77228,463.44068v46.33a2.85972,2.85972,0,0,1-1.43,2.49l-40.13,23.17a2.95325,2.95325,0,0,1-1.44.38,2.91585,2.91585,0,0,1-1.43-.38l-40.13-23.17a2.86881,2.86881,0,0,1-1.44-2.49v-46.33a2.89842,2.89842,0,0,1,1.44-2.49l40.13-23.17a2.812,2.812,0,0,1,1.43-.38,2.84785,2.84785,0,0,1,1.44.38l40.13,23.17A2.88482,2.88482,0,0,1,306.77228,463.44068Z"/></svg>