<svg id="Layer_1" data-name="Layer 1" xmlns="http://www.w3.org/2000/svg" viewBox="0 0 145 143"><defs><style>.cls-1{opacity:0.3;}.cls-2{fill:#a117e6;}</style></defs><title>enterprise-text-blob</title><g id="moltin-home-v5" class="cls-1"><path id="Shape" class="cls-2" d="M124.96355,20.45941,144.03906,86.9836a4.26847,4.26847,0,0,1-1.03663,4.16688L94.67924,141.01206a4.448,4.448,0,0,1-1.92,1.14079,4.38888,4.38888,0,0,1-2.21831.04584L23.138,125.52106a4.28231,4.28231,0,0,1-3.10166-2.98024L.9608,56.01663a4.32669,4.32669,0,0,1,1.05106-4.171L50.33518,1.9845A4.232,4.232,0,0,1,52.24058.84738,4.28374,4.28374,0,0,1,54.47347.79786L121.87633,17.475A4.3068,4.3068,0,0,1,124.96355,20.45941Z"/></g></svg>